<svg width="23" height="23" fill="none" xmlns="http://www.w3.org/2000/svg"><g clip-path="url(#clip0)"><path d="M21.843 2.957l-.842-.842a3.95 3.95 0 00-5.585 0L4.65 12.879a2.793 2.793 0 000 3.95l.562.56a2.889 2.889 0 003.95 0l7.947-7.947a.48.48 0 10-.678-.677l-7.947 7.947a1.898 1.898 0 01-2.594 0l-.562-.561a1.834 1.834 0 010-2.595L16.093 2.793a3.067 3.067 0 014.23 0l.843.843a2.992 2.992 0 010 4.23L9.162 19.868a4.149 4.149 0 01-5.866 0l-1.123-1.122a4.149 4.149 0 010-5.866l9.187-9.187a.48.48 0 10-.678-.677L1.496 12.2a5.106 5.106 0 000 7.221l1.123 1.124a5.106 5.106 0 007.22 0L21.844 8.542a3.95 3.95 0 000-5.585z" fill="#CFD8DC"/><path d="M6.229 22.042a5.08 5.08 0 01-3.611-1.496l-1.122-1.122a5.106 5.106 0 010-7.222l9.186-9.186a.48.48 0 11.678.677L2.173 12.88a4.149 4.149 0 000 5.866l1.123 1.123a4.149 4.149 0 005.866 0L21.166 7.865a2.992 2.992 0 000-4.23l-.843-.843a3.067 3.067 0 00-4.23 0L5.33 13.556a1.834 1.834 0 000 2.595l.562.561c.73.683 1.864.683 2.594 0l7.947-7.947a.48.48 0 11.678.677L9.162 17.39a2.889 2.889 0 01-3.949 0l-.562-.562a2.793 2.793 0 010-3.949L15.416 2.115a3.95 3.95 0 015.585 0l.842.842a3.95 3.95 0 010 5.585L9.84 20.546a5.08 5.08 0 01-3.611 1.496z" fill="#000"/></g><defs><clipPath id="clip0"><path fill="#fff" d="M0 0h23v23H0z"/></clipPath></defs></svg>